<svg xmlns="http://www.w3.org/2000/svg" width="80" height="80" viewBox="0 0 80 80">
  <path id="check_circle_FILL0_wght300_GRAD0_opsz40" d="M38.061,61.958,66.379,33.64l-3.9-3.893L38.061,54.166,25.745,41.85l-3.893,3.9Zm6.106,22.209a39.478,39.478,0,0,1-15.684-3.1A39.723,39.723,0,0,1,7.272,59.851a39.478,39.478,0,0,1-3.1-15.684,39.714,39.714,0,0,1,40-40,39.778,39.778,0,0,1,40,40,39.478,39.478,0,0,1-3.1,15.684,39.821,39.821,0,0,1-36.9,24.316Zm0-40Zm0,34.738A33.559,33.559,0,0,0,68.852,68.852,33.559,33.559,0,0,0,78.9,44.167,33.559,33.559,0,0,0,68.852,19.482,33.559,33.559,0,0,0,44.167,9.429,33.559,33.559,0,0,0,19.482,19.482,33.559,33.559,0,0,0,9.429,44.167,33.559,33.559,0,0,0,19.482,68.852,33.559,33.559,0,0,0,44.167,78.9Z" transform="translate(-4.167 -4.167)" fill="#00c721"/>
</svg>
