<?xml version="1.0" encoding="UTF-8" standalone="no"?>
<svg xmlns="http://www.w3.org/2000/svg" xmlns:xlink="http://www.w3.org/1999/xlink" width="192" height="143" viewBox="0 0 192 143">
  <defs>
    <clipPath id="clip-path">
      <rect id="Rectangle_69" data-name="Rectangle 69" width="192" height="143" transform="translate(17 30)" fill="#fff"/>
    </clipPath>
    <clipPath id="clip-path-2">
      <path id="Path_75" data-name="Path 75" d="M141.333,95.667,107.333,65l-32,30.667v80.666h66Z" fill="none" stroke="#707070" stroke-width="1"/>
    </clipPath>
  </defs>
  <g id="logo" transform="translate(-17 -30)" clip-path="url(#clip-path)">
    <path id="Path_73" data-name="Path 73" d="M436.157,766.219V751.683h5.492a3.487,3.487,0,0,1,3.749,3.7,3.209,3.209,0,0,1-2.288,3.334,3.447,3.447,0,0,1,2.528,3.574c0,2.266-1.264,3.923-3.814,3.923Zm6.756-10.439a1.739,1.739,0,0,0-1.787-1.984h-2.55v3.944h2.55C442.346,757.741,442.913,756.935,442.913,755.78Zm.239,6.189a1.882,1.882,0,0,0-1.939-2.092h-2.637v4.206h2.637C442.5,764.083,443.153,763.3,443.153,761.969Zm4.665-3.007c0-4.272,2.136-7.519,5.819-7.519s5.819,3.247,5.819,7.519-2.136,7.519-5.819,7.519S447.817,763.233,447.817,758.962Zm9.175,0c0-3.051-1.2-5.383-3.356-5.383-2.179,0-3.356,2.332-3.356,5.383,0,3.007,1.177,5.361,3.356,5.361C455.794,764.322,456.992,761.969,456.992,758.962Zm4.6,0c0-4.511,2.354-7.519,5.928-7.519a4.976,4.976,0,0,1,4.62,3.095l-1.962.915a2.958,2.958,0,0,0-2.659-1.875c-2.07,0-3.465,2.07-3.465,5.383,0,3.29,1.395,5.383,3.465,5.383a3.269,3.269,0,0,0,2.419-1.046v-2.7h-3.051v-2.114h5.339v5.775a5.945,5.945,0,0,1-4.707,2.245C463.946,766.5,461.592,763.451,461.592,758.962Zm12.99,0c0-4.272,2.136-7.519,5.819-7.519s5.819,3.247,5.819,7.519-2.136,7.519-5.819,7.519S474.582,763.233,474.582,758.962Zm9.175,0c0-3.051-1.2-5.383-3.356-5.383-2.179,0-3.356,2.332-3.356,5.383,0,3.007,1.177,5.361,3.356,5.361C482.558,764.322,483.757,761.969,483.757,758.962Zm7.869,7.257-4.337-14.536H489.9l3.182,11.681,3.16-11.681h2.615l-4.337,14.536Zm16.041,0-.785-2.877h-4.773l-.785,2.877H498.71l4.337-14.536h2.9l4.337,14.536Zm-3.16-11.965-1.9,6.952H506.4Zm6.67,4.708c0-4.381,2.288-7.519,5.928-7.519a4.907,4.907,0,0,1,4.6,3.2l-2,.894a2.876,2.876,0,0,0-2.593-1.962c-2.136,0-3.465,2.267-3.465,5.383,0,3.095,1.329,5.361,3.465,5.361a2.882,2.882,0,0,0,2.615-2.135l2,.893c-.741,1.7-2.049,3.4-4.62,3.4C513.465,766.481,511.177,763.32,511.177,758.962Zm17.414,0c0-4.381,2.288-7.519,5.928-7.519a4.907,4.907,0,0,1,4.6,3.2l-2,.894a2.876,2.876,0,0,0-2.593-1.962c-2.136,0-3.465,2.267-3.465,5.383,0,3.095,1.329,5.361,3.465,5.361a2.882,2.882,0,0,0,2.615-2.135l2,.893c-.741,1.7-2.048,3.4-4.62,3.4C530.879,766.481,528.591,763.32,528.591,758.962Zm12.358,0c0-4.272,2.136-7.519,5.819-7.519s5.819,3.247,5.819,7.519-2.136,7.519-5.819,7.519S540.949,763.233,540.949,758.962Zm9.175,0c0-3.051-1.2-5.383-3.356-5.383-2.179,0-3.356,2.332-3.356,5.383,0,3.007,1.177,5.361,3.356,5.361C548.925,764.322,550.124,761.969,550.124,758.962Zm12.947,7.257-5.383-9.393v9.393h-2.419V751.683h2.441l5.252,9.131v-9.131h2.419v14.536Zm4.621-1.591,1.22-1.874a4.647,4.647,0,0,0,3.465,1.568c1.5,0,2.266-.893,2.266-1.918,0-2.985-6.516-2.07-6.516-6.909,0-2.266,1.766-4.053,4.511-4.053a5.907,5.907,0,0,1,4.184,1.569l-1.177,1.831a4.263,4.263,0,0,0-3.073-1.242,1.781,1.781,0,0,0-1.983,1.765c0,2.594,6.516,1.961,6.516,6.843,0,2.375-1.613,4.272-4.729,4.272A6.183,6.183,0,0,1,567.692,764.628Zm14.167,1.591V753.8h-3.334v-2.113h9.066V753.8h-3.334v12.422Zm14.733,0-2.463-5.492h-1.787v5.492h-2.419V751.683h5.013a4.146,4.146,0,0,1,4.228,4.489c0,2.55-1.395,3.792-2.68,4.14l2.811,5.906Zm.109-10.025a2.133,2.133,0,0,0-2.114-2.4h-2.245v4.795h2.245A2.133,2.133,0,0,0,596.7,756.194Zm5.275,5.143v-9.654h2.419v9.676c0,1.94.959,2.985,2.637,2.985s2.637-1.046,2.637-2.985v-9.676h2.419v9.654c0,3.291-1.918,5.143-5.056,5.143S601.975,764.628,601.975,761.337Zm12.794-2.375c0-4.381,2.288-7.519,5.928-7.519a4.907,4.907,0,0,1,4.6,3.2l-2,.894a2.876,2.876,0,0,0-2.593-1.962c-2.136,0-3.465,2.267-3.465,5.383,0,3.095,1.329,5.361,3.465,5.361a2.882,2.882,0,0,0,2.615-2.135l2,.893c-.741,1.7-2.048,3.4-4.62,3.4C617.057,766.481,614.769,763.32,614.769,758.962Zm15.344,7.257V753.8h-3.334v-2.113h9.066V753.8H632.51v12.422Zm8.064,0V751.683H640.6v14.536Zm5.1-7.257c0-4.272,2.136-7.519,5.819-7.519s5.819,3.247,5.819,7.519-2.136,7.519-5.819,7.519S643.277,763.233,643.277,758.962Zm9.175,0c0-3.051-1.2-5.383-3.356-5.383-2.179,0-3.356,2.332-3.356,5.383,0,3.007,1.177,5.361,3.356,5.361C651.253,764.322,652.452,761.969,652.452,758.962Zm12.947,7.257-5.383-9.393v9.393H657.6V751.683h2.441l5.252,9.131v-9.131h2.419v14.536ZM542.469,651.552l-3.839,3.585L529.9,663.29l-7.029,6.563v75.194H549.5V718.994l-7.029-6.554-.5-.466h7.53V645l-3.839,3.585Zm0,70.5v15.968H529.9V711.974h1.775Zm-8.03-17.107H529.9V672.9l8.734-8.154,3.839-3.585v43.781Zm39.529-41.655-8.733-8.153-3.84-3.585-3.189-2.97L554.365,645V745.044h2.343v0h21.21v0H581V731.953h-7.029v6.066H561.394V661.164l3.84,3.585,8.733,8.145v10.051H581V669.853Zm34.283,81.758-10.79-6.222V667.5l-7.029-6.564-25.2-23.52-7.029-6.563L551.932,625l-6.273,5.851-7.029,6.563-25.2,23.52L506.4,667.5v71.328l-10.787,6.221h12.213l0-.012h5.6V670.547l25.2-23.52,7.029-6.563,6.273-5.852,6.273,5.852,7.029,6.563,25.2,23.512v74.5h5.6l0,.012ZM487.068,778.857V775.38h-4.145v3.477h-1.4v-7.968h1.4v3.261h4.145v-3.261h1.4v7.968Zm5.726-3.978A4.074,4.074,0,1,1,496.868,779,3.953,3.953,0,0,1,492.794,774.878Zm6.714,0a2.65,2.65,0,1,0-2.64,2.879A2.647,2.647,0,0,0,499.508,774.878Zm12.655,3.978v-5.914l-2.449,5.914h-.6l-2.437-5.914v5.914h-1.4v-7.968h1.971l2.162,5.245,2.174-5.245h1.971v7.968Zm6.084,0v-7.968h5.46v1.231h-4.062v2.067h3.978v1.231h-3.978v2.21h4.062v1.231Zm15.427-1.123.777-1.075a3.436,3.436,0,0,0,2.521,1.1c1.147,0,1.6-.561,1.6-1.087,0-1.672-4.647-.633-4.647-3.572,0-1.315,1.159-2.33,2.9-2.33a4.146,4.146,0,0,1,2.987,1.111l-.8,1.04a3.239,3.239,0,0,0-2.306-.908c-.824,0-1.35.394-1.35.992,0,1.481,4.635.561,4.635,3.536,0,1.326-.932,2.461-3.082,2.461A4.261,4.261,0,0,1,533.674,777.733Zm10.241-2.855A4.074,4.074,0,1,1,547.989,779,3.953,3.953,0,0,1,543.915,774.878Zm6.714,0a2.65,2.65,0,1,0-2.64,2.879A2.647,2.647,0,0,0,550.629,774.878Zm5.773,3.978v-7.968h1.4v6.738h3.512v1.231Zm8.867-3.142v-4.827h1.41v4.779a2.038,2.038,0,1,0,4.074,0v-4.779h1.41V775.7c0,1.984-1.135,3.3-3.441,3.3S565.27,777.674,565.27,775.715Zm13.479,3.142v-6.738h-2.414v-1.231h6.224v1.231h-2.413v6.738Zm7.983,0v-7.968h1.4v7.968Zm5.724-3.978A4.074,4.074,0,1,1,596.529,779,3.953,3.953,0,0,1,592.456,774.878Zm6.714,0a2.65,2.65,0,1,0-2.64,2.879A2.647,2.647,0,0,0,599.17,774.878Zm11.328,3.978-4.157-5.687v5.687h-1.4v-7.968h1.434l4.074,5.531v-5.531h1.4v7.968Zm5.523-1.123.777-1.075a3.436,3.436,0,0,0,2.521,1.1c1.146,0,1.6-.561,1.6-1.087,0-1.672-4.647-.633-4.647-3.572,0-1.315,1.159-2.33,2.9-2.33a4.146,4.146,0,0,1,2.987,1.111l-.8,1.04a3.239,3.239,0,0,0-2.306-.908c-.824,0-1.35.394-1.35.992,0,1.481,4.635.561,4.635,3.536,0,1.326-.932,2.461-3.082,2.461A4.263,4.263,0,0,1,616.021,777.733Z" transform="translate(-443.933 -574)" fill="#00001c"/>
    <g id="Mask_Group_2" data-name="Mask Group 2" clip-path="url(#clip-path-2)">
      <path id="Path_74" data-name="Path 74" d="M436.157,766.219V751.683h5.492a3.487,3.487,0,0,1,3.749,3.7,3.209,3.209,0,0,1-2.288,3.334,3.447,3.447,0,0,1,2.528,3.574c0,2.266-1.264,3.923-3.814,3.923Zm6.756-10.439a1.739,1.739,0,0,0-1.787-1.984h-2.55v3.944h2.55C442.346,757.741,442.913,756.935,442.913,755.78Zm.239,6.189a1.882,1.882,0,0,0-1.939-2.092h-2.637v4.206h2.637C442.5,764.083,443.153,763.3,443.153,761.969Zm4.665-3.007c0-4.272,2.136-7.519,5.819-7.519s5.819,3.247,5.819,7.519-2.136,7.519-5.819,7.519S447.817,763.233,447.817,758.962Zm9.175,0c0-3.051-1.2-5.383-3.356-5.383-2.179,0-3.356,2.332-3.356,5.383,0,3.007,1.177,5.361,3.356,5.361C455.794,764.322,456.992,761.969,456.992,758.962Zm4.6,0c0-4.511,2.354-7.519,5.928-7.519a4.976,4.976,0,0,1,4.62,3.095l-1.962.915a2.958,2.958,0,0,0-2.659-1.875c-2.07,0-3.465,2.07-3.465,5.383,0,3.29,1.395,5.383,3.465,5.383a3.269,3.269,0,0,0,2.419-1.046v-2.7h-3.051v-2.114h5.339v5.775a5.945,5.945,0,0,1-4.707,2.245C463.946,766.5,461.592,763.451,461.592,758.962Zm12.99,0c0-4.272,2.136-7.519,5.819-7.519s5.819,3.247,5.819,7.519-2.136,7.519-5.819,7.519S474.582,763.233,474.582,758.962Zm9.175,0c0-3.051-1.2-5.383-3.356-5.383-2.179,0-3.356,2.332-3.356,5.383,0,3.007,1.177,5.361,3.356,5.361C482.558,764.322,483.757,761.969,483.757,758.962Zm7.869,7.257-4.337-14.536H489.9l3.182,11.681,3.16-11.681h2.615l-4.337,14.536Zm16.041,0-.785-2.877h-4.773l-.785,2.877H498.71l4.337-14.536h2.9l4.337,14.536Zm-3.16-11.965-1.9,6.952H506.4Zm6.67,4.708c0-4.381,2.288-7.519,5.928-7.519a4.907,4.907,0,0,1,4.6,3.2l-2,.894a2.876,2.876,0,0,0-2.593-1.962c-2.136,0-3.465,2.267-3.465,5.383,0,3.095,1.329,5.361,3.465,5.361a2.882,2.882,0,0,0,2.615-2.135l2,.893c-.741,1.7-2.049,3.4-4.62,3.4C513.465,766.481,511.177,763.32,511.177,758.962Zm17.414,0c0-4.381,2.288-7.519,5.928-7.519a4.907,4.907,0,0,1,4.6,3.2l-2,.894a2.876,2.876,0,0,0-2.593-1.962c-2.136,0-3.465,2.267-3.465,5.383,0,3.095,1.329,5.361,3.465,5.361a2.882,2.882,0,0,0,2.615-2.135l2,.893c-.741,1.7-2.048,3.4-4.62,3.4C530.879,766.481,528.591,763.32,528.591,758.962Zm12.358,0c0-4.272,2.136-7.519,5.819-7.519s5.819,3.247,5.819,7.519-2.136,7.519-5.819,7.519S540.949,763.233,540.949,758.962Zm9.175,0c0-3.051-1.2-5.383-3.356-5.383-2.179,0-3.356,2.332-3.356,5.383,0,3.007,1.177,5.361,3.356,5.361C548.925,764.322,550.124,761.969,550.124,758.962Zm12.947,7.257-5.383-9.393v9.393h-2.419V751.683h2.441l5.252,9.131v-9.131h2.419v14.536Zm4.621-1.591,1.22-1.874a4.647,4.647,0,0,0,3.465,1.568c1.5,0,2.266-.893,2.266-1.918,0-2.985-6.516-2.07-6.516-6.909,0-2.266,1.766-4.053,4.511-4.053a5.907,5.907,0,0,1,4.184,1.569l-1.177,1.831a4.263,4.263,0,0,0-3.073-1.242,1.781,1.781,0,0,0-1.983,1.765c0,2.594,6.516,1.961,6.516,6.843,0,2.375-1.613,4.272-4.729,4.272A6.183,6.183,0,0,1,567.692,764.628Zm14.167,1.591V753.8h-3.334v-2.113h9.066V753.8h-3.334v12.422Zm14.733,0-2.463-5.492h-1.787v5.492h-2.419V751.683h5.013a4.146,4.146,0,0,1,4.228,4.489c0,2.55-1.395,3.792-2.68,4.14l2.811,5.906Zm.109-10.025a2.133,2.133,0,0,0-2.114-2.4h-2.245v4.795h2.245A2.133,2.133,0,0,0,596.7,756.194Zm5.275,5.143v-9.654h2.419v9.676c0,1.94.959,2.985,2.637,2.985s2.637-1.046,2.637-2.985v-9.676h2.419v9.654c0,3.291-1.918,5.143-5.056,5.143S601.975,764.628,601.975,761.337Zm12.794-2.375c0-4.381,2.288-7.519,5.928-7.519a4.907,4.907,0,0,1,4.6,3.2l-2,.894a2.876,2.876,0,0,0-2.593-1.962c-2.136,0-3.465,2.267-3.465,5.383,0,3.095,1.329,5.361,3.465,5.361a2.882,2.882,0,0,0,2.615-2.135l2,.893c-.741,1.7-2.048,3.4-4.62,3.4C617.057,766.481,614.769,763.32,614.769,758.962Zm15.344,7.257V753.8h-3.334v-2.113h9.066V753.8H632.51v12.422Zm8.064,0V751.683H640.6v14.536Zm5.1-7.257c0-4.272,2.136-7.519,5.819-7.519s5.819,3.247,5.819,7.519-2.136,7.519-5.819,7.519S643.277,763.233,643.277,758.962Zm9.175,0c0-3.051-1.2-5.383-3.356-5.383-2.179,0-3.356,2.332-3.356,5.383,0,3.007,1.177,5.361,3.356,5.361C651.253,764.322,652.452,761.969,652.452,758.962Zm12.947,7.257-5.383-9.393v9.393H657.6V751.683h2.441l5.252,9.131v-9.131h2.419v14.536ZM542.469,651.552l-3.839,3.585L529.9,663.29l-7.029,6.563v75.194H549.5V718.994l-7.029-6.554-.5-.466h7.53V645l-3.839,3.585Zm0,70.5v15.968H529.9V711.974h1.775Zm-8.03-17.107H529.9V672.9l8.734-8.154,3.839-3.585v43.781Zm39.529-41.655-8.733-8.153-3.84-3.585-3.189-2.97L554.365,645V745.044h2.343v0h21.21v0H581V731.953h-7.029v6.066H561.394V661.164l3.84,3.585,8.733,8.145v10.051H581V669.853Zm34.283,81.758-10.79-6.222V667.5l-7.029-6.564-25.2-23.52-7.029-6.563L551.932,625l-6.273,5.851-7.029,6.563-25.2,23.52L506.4,667.5v71.328l-10.787,6.221h12.213l0-.012h5.6V670.547l25.2-23.52,7.029-6.563,6.273-5.852,6.273,5.852,7.029,6.563,25.2,23.512v74.5h5.6l0,.012ZM487.068,778.857V775.38h-4.145v3.477h-1.4v-7.968h1.4v3.261h4.145v-3.261h1.4v7.968Zm5.726-3.978A4.074,4.074,0,1,1,496.868,779,3.953,3.953,0,0,1,492.794,774.878Zm6.714,0a2.65,2.65,0,1,0-2.64,2.879A2.647,2.647,0,0,0,499.508,774.878Zm12.655,3.978v-5.914l-2.449,5.914h-.6l-2.437-5.914v5.914h-1.4v-7.968h1.971l2.162,5.245,2.174-5.245h1.971v7.968Zm6.084,0v-7.968h5.46v1.231h-4.062v2.067h3.978v1.231h-3.978v2.21h4.062v1.231Zm15.427-1.123.777-1.075a3.436,3.436,0,0,0,2.521,1.1c1.147,0,1.6-.561,1.6-1.087,0-1.672-4.647-.633-4.647-3.572,0-1.315,1.159-2.33,2.9-2.33a4.146,4.146,0,0,1,2.987,1.111l-.8,1.04a3.239,3.239,0,0,0-2.306-.908c-.824,0-1.35.394-1.35.992,0,1.481,4.635.561,4.635,3.536,0,1.326-.932,2.461-3.082,2.461A4.261,4.261,0,0,1,533.674,777.733Zm10.241-2.855A4.074,4.074,0,1,1,547.989,779,3.953,3.953,0,0,1,543.915,774.878Zm6.714,0a2.65,2.65,0,1,0-2.64,2.879A2.647,2.647,0,0,0,550.629,774.878Zm5.773,3.978v-7.968h1.4v6.738h3.512v1.231Zm8.867-3.142v-4.827h1.41v4.779a2.038,2.038,0,1,0,4.074,0v-4.779h1.41V775.7c0,1.984-1.135,3.3-3.441,3.3S565.27,777.674,565.27,775.715Zm13.479,3.142v-6.738h-2.414v-1.231h6.224v1.231h-2.413v6.738Zm7.983,0v-7.968h1.4v7.968Zm5.724-3.978A4.074,4.074,0,1,1,596.529,779,3.953,3.953,0,0,1,592.456,774.878Zm6.714,0a2.65,2.65,0,1,0-2.64,2.879A2.647,2.647,0,0,0,599.17,774.878Zm11.328,3.978-4.157-5.687v5.687h-1.4v-7.968h1.434l4.074,5.531v-5.531h1.4v7.968Zm5.523-1.123.777-1.075a3.436,3.436,0,0,0,2.521,1.1c1.146,0,1.6-.561,1.6-1.087,0-1.672-4.647-.633-4.647-3.572,0-1.315,1.159-2.33,2.9-2.33a4.146,4.146,0,0,1,2.987,1.111l-.8,1.04a3.239,3.239,0,0,0-2.306-.908c-.824,0-1.35.394-1.35.992,0,1.481,4.635.561,4.635,3.536,0,1.326-.932,2.461-3.082,2.461A4.263,4.263,0,0,1,616.021,777.733Z" transform="translate(-443.933 -574)" fill="#01013f"/>
    </g>
  </g>
</svg>
